<svg width="26" height="25" viewBox="0 0 26 25" fill="none" xmlns="http://www.w3.org/2000/svg">
<g clip-path="url(#clip0_1_8402)">
<path d="M17.5836 13.3586H12.5841C12.3852 13.3586 12.1944 13.2795 12.0538 13.1389C11.9131 12.9982 11.8341 12.8075 11.8341 12.6086V3.44312C11.8341 3.2442 11.9131 3.05344 12.0538 2.91279C12.1944 2.77213 12.3852 2.69312 12.5841 2.69312C12.783 2.69312 12.9738 2.77213 13.1144 2.91279C13.2551 3.05344 13.3341 3.2442 13.3341 3.44312V11.8581H17.5836C17.7825 11.8581 17.9733 11.9371 18.1139 12.0778C18.2546 12.2184 18.3336 12.4092 18.3336 12.6081C18.3336 12.807 18.2546 12.9978 18.1139 13.1384C17.9733 13.2791 17.7825 13.3581 17.5836 13.3581V13.3586Z" fill="#9CA3AF"/>
<path d="M13 24.1926C10.3307 24.1985 7.73536 23.3161 5.62275 21.6846C3.51013 20.053 2.00035 17.765 1.33124 15.1809C0.662132 12.5968 0.871722 9.86359 1.927 7.41175C2.98227 4.95991 4.82325 2.92882 7.15992 1.63845C9.4966 0.34807 12.1962 -0.128257 14.8333 0.284502C17.4705 0.697261 19.8955 1.97565 21.7261 3.91828C23.5568 5.8609 24.6891 8.35736 24.9448 11.0144C25.2004 13.6714 24.5649 16.338 23.1382 18.594C23.0855 18.6773 23.0169 18.7494 22.9363 18.8062C22.8558 18.863 22.7648 18.9033 22.6686 18.925C22.5724 18.9466 22.473 18.949 22.3758 18.9322C22.2787 18.9154 22.1858 18.8796 22.1025 18.8269C22.0193 18.7742 21.9472 18.7056 21.8904 18.625C21.8336 18.5444 21.7932 18.4535 21.7716 18.3573C21.75 18.2611 21.7475 18.1616 21.7643 18.0645C21.7812 17.9674 21.817 17.8745 21.8697 17.7912C23.2547 15.6012 23.7837 12.9774 23.3552 10.4218C22.9268 7.8662 21.5711 5.55831 19.5476 3.93972C17.524 2.32113 14.9747 1.5055 12.3875 1.64889C9.80018 1.79229 7.35661 2.88463 5.52432 4.71692C3.69203 6.54921 2.59969 8.99278 2.45629 11.5801C2.3129 14.1673 3.12853 16.7166 4.74712 18.7402C6.36572 20.7637 8.6736 22.1194 11.2292 22.5478C13.7848 22.9763 16.4086 22.4473 18.5986 21.0623C18.6819 21.0096 18.7748 20.9738 18.8719 20.9569C18.969 20.9401 19.0685 20.9426 19.1647 20.9642C19.2609 20.9858 19.3518 21.0262 19.4324 21.083C19.513 21.1398 19.5816 21.2119 19.6343 21.2951C19.687 21.3784 19.7228 21.4713 19.7396 21.5684C19.7564 21.6656 19.754 21.765 19.7324 21.8612C19.7107 21.9574 19.6704 22.0484 19.6136 22.1289C19.5568 22.2095 19.4847 22.2781 19.4014 22.3308C17.4871 23.5454 15.2671 24.1911 13 24.1926Z" fill="#9CA3AF"/>
</g>
<defs>
<clipPath id="clip0_1_8402">
<rect width="24" height="24" fill="white" transform="translate(1 0.192627)"/>
</clipPath>
</defs>
</svg>
