<svg width="17" height="17" viewBox="0 0 17 17" fill="none" xmlns="http://www.w3.org/2000/svg">
<g clip-path="url(#clip0_5676_3710)">
<path d="M1.00004 15.9316C0.920785 15.9317 0.842652 15.9129 0.772087 15.8768C0.701522 15.8407 0.640548 15.7884 0.594192 15.7241C0.547837 15.6598 0.517428 15.5854 0.505475 15.5071C0.493522 15.4287 0.500366 15.3486 0.525443 15.2734L1.83004 11.3594C1.85476 11.2859 1.89621 11.219 1.95114 11.1641L11.9 1.21485C11.9942 1.12305 12.1208 1.07205 12.2523 1.07289C12.3838 1.07373 12.5097 1.12635 12.6026 1.21935C12.6956 1.31235 12.7482 1.43824 12.7491 1.56975C12.7499 1.70125 12.6989 1.82779 12.607 1.92195L2.74224 11.7881L1.79104 14.6406L4.64364 13.69L15.293 3.04105L14.1738 1.92195C14.0808 1.82804 14.0287 1.70108 14.0289 1.56885C14.0292 1.43662 14.0819 1.30989 14.1754 1.21639C14.2689 1.12289 14.3956 1.07024 14.5278 1.06995C14.6601 1.06966 14.787 1.12176 14.8809 1.21485L16.3535 2.68755C16.4473 2.78131 16.4999 2.90847 16.4999 3.04105C16.4999 3.17363 16.4473 3.30078 16.3535 3.39455L5.26764 14.4805C5.21274 14.5354 5.1459 14.5769 5.07234 14.6016L1.15824 15.9062C1.10715 15.9229 1.05378 15.9314 1.00004 15.9316Z" fill="#6B7280"/>
</g>
<defs>
<clipPath id="clip0_5676_3710">
<rect width="16" height="16" fill="white" transform="translate(0.5 0.5)"/>
</clipPath>
</defs>
</svg>
