<svg width="24" height="25" viewBox="0 0 24 25" fill="none" xmlns="http://www.w3.org/2000/svg">
<g clip-path="url(#clip0_1_8415)">
<path d="M15.1486 5.84253L16.2736 3.59103C16.3176 3.50293 16.3439 3.40701 16.3508 3.30876C16.3578 3.21051 16.3454 3.11185 16.3142 3.01841C16.2831 2.92497 16.2338 2.83858 16.1693 2.76417C16.1047 2.68976 16.0262 2.6288 15.9381 2.58475C15.85 2.54071 15.7541 2.51445 15.6558 2.50747C15.5576 2.50049 15.4589 2.51293 15.3655 2.54408C15.272 2.57523 15.1856 2.62449 15.1112 2.68902C15.0368 2.75356 14.9759 2.83213 14.9318 2.92023L13.7 5.38548H10.3001L8.45436 1.69263H14.1637C14.3626 1.69263 14.5533 1.61361 14.694 1.47296C14.8346 1.3323 14.9137 1.14154 14.9137 0.942627C14.9137 0.743715 14.8346 0.552949 14.694 0.412297C14.5533 0.271645 14.3626 0.192627 14.1637 0.192627L7.24071 0.192627C7.11288 0.192657 6.98718 0.225357 6.87555 0.287623C6.76391 0.34989 6.67004 0.439655 6.60285 0.548398C6.53566 0.657142 6.49738 0.781253 6.49164 0.908951C6.4859 1.03665 6.51289 1.16369 6.57006 1.27803L8.85156 5.84268C7.01724 7.05659 5.49493 8.68583 4.40815 10.5982C3.32136 12.5106 2.70071 14.6522 2.59656 16.8494C2.59656 19.8011 5.10006 24.1926 12.0001 24.1926C18.9001 24.1926 21.4036 19.8011 21.4036 16.8494C21.2994 14.6522 20.6787 12.5106 19.592 10.5982C18.5052 8.68575 16.9829 7.05648 15.1486 5.84253ZM12.0001 22.6926C6.20151 22.6926 4.09656 19.1976 4.09656 16.8494C4.09656 11.3621 9.05946 6.88548 10.2694 6.88548H13.7308C14.9407 6.88548 19.9036 11.3621 19.9036 16.8494C19.9036 19.1976 17.7986 22.6926 12.0001 22.6926Z" fill="#9CA3AF"/>
<path d="M12.7501 14.2796V12.068C12.9896 12.14 13.2134 12.2563 13.41 12.4109C13.4866 12.4729 13.5746 12.5193 13.6691 12.5473C13.7636 12.5754 13.8627 12.5845 13.9607 12.5743C14.0587 12.564 14.1537 12.5345 14.2403 12.4875C14.327 12.4406 14.4035 12.377 14.4655 12.3004C14.5276 12.2239 14.5739 12.1358 14.602 12.0414C14.63 11.9469 14.6391 11.8478 14.6289 11.7498C14.6186 11.6518 14.5892 11.5568 14.5422 11.4701C14.4952 11.3835 14.4316 11.307 14.3551 11.2449C13.8872 10.87 13.332 10.6198 12.7412 10.5174C12.7303 10.3244 12.6447 10.1431 12.5025 10.0121C12.3604 9.88099 12.1728 9.81038 11.9795 9.81517C11.7862 9.81997 11.6023 9.89979 11.4668 10.0377C11.3313 10.1757 11.2548 10.361 11.2535 10.5543C10.6335 10.6264 10.0577 10.9114 9.62431 11.3606C9.19094 11.8098 8.92684 12.3954 8.87705 13.0176C8.87705 14.4561 9.9983 14.856 11.0831 15.2442C11.1353 15.2627 11.1959 15.2862 11.2501 15.3057V17.8008C10.7623 17.7641 10.2923 17.6025 9.88505 17.3316C9.80618 17.2725 9.71644 17.2296 9.62096 17.2052C9.52547 17.1807 9.42612 17.1754 9.32856 17.1894C9.231 17.2033 9.13715 17.2364 9.05238 17.2867C8.9676 17.3369 8.89354 17.4034 8.83445 17.4822C8.77536 17.5611 8.73237 17.6509 8.70796 17.7463C8.68355 17.8418 8.67818 17.9412 8.69216 18.0387C8.70615 18.1363 8.73921 18.2301 8.78946 18.3149C8.83972 18.3997 8.90618 18.4737 8.98505 18.5328C9.65956 18.9943 10.4488 19.2598 11.2651 19.2998C11.2822 19.4866 11.3697 19.66 11.5098 19.7847C11.6499 19.9095 11.8322 19.9763 12.0198 19.9717C12.2074 19.9671 12.3862 19.8913 12.52 19.7599C12.6538 19.6284 12.7327 19.4509 12.7406 19.2635C14.9503 18.9635 15.3134 17.6975 15.3134 16.9038C15.3151 15.5334 14.0851 14.8406 12.7501 14.2796ZM10.3771 13.0176C10.3771 12.6437 10.7453 12.3146 11.2501 12.1254V13.7076C10.418 13.3941 10.3771 13.2927 10.3771 13.0176ZM12.7501 17.7369V15.9294C13.6546 16.3775 13.8151 16.6644 13.8151 16.9035C13.8151 17.334 13.4435 17.6076 12.7501 17.7369Z" fill="#9CA3AF"/>
</g>
<defs>
<clipPath id="clip0_1_8415">
<rect width="24" height="24" fill="white" transform="translate(0 0.192627)"/>
</clipPath>
</defs>
</svg>
