<svg width="24" height="25" viewBox="0 0 24 25" fill="none" xmlns="http://www.w3.org/2000/svg">
<g clip-path="url(#clip0_1_8393)">
<path d="M19.1837 24.1926H5.39359C5.10985 24.1902 4.83866 24.0754 4.63954 23.8732C4.44043 23.6711 4.32967 23.3982 4.33159 23.1144V20.4909C4.32656 19.7086 4.62632 18.955 5.16735 18.3898C5.70839 17.8246 6.44819 17.4923 7.23004 17.4632C7.31359 14.4515 7.92589 12.452 9.05239 11.513C9.45229 11.1848 9.84634 10.823 10.1685 10.5008C9.84188 10.4314 9.52145 10.3354 9.21049 10.2137C9.09484 10.1711 8.96884 10.1258 8.87359 10.0964C8.81944 10.1403 8.75209 10.2014 8.69779 10.2503C8.39928 10.5612 8.04174 10.8095 7.64609 10.9805C7.25044 11.1515 6.82465 11.2419 6.39364 11.2463C4.52299 11.2463 3.78184 9.35087 3.75364 8.15627C3.73459 7.40912 4.51099 6.72077 6.16339 5.43602C6.53389 5.14607 6.86944 4.88822 7.06714 4.70222C7.23829 4.52213 7.3731 4.31072 7.46419 4.07957C7.57288 3.74484 7.77629 3.4488 8.04979 3.2273C8.32328 3.0058 8.65513 2.86834 9.00514 2.83157C9.10838 2.8273 9.21039 2.80743 9.30769 2.77262H9.30619C9.27544 2.77262 9.30619 2.53832 9.10264 1.75172C9.0202 1.53098 9.00515 1.29074 9.05938 1.06144C9.11362 0.832137 9.2347 0.624095 9.40729 0.463674C10.095 -0.125226 11.1987 0.345024 12.7266 0.990924C13.2627 1.21802 13.815 1.45382 14.31 1.61492C16.623 2.37527 19.2 5.84987 19.2 9.62177C19.1652 11.221 18.8293 12.7993 18.21 14.2742C17.7918 15.2955 17.511 16.3679 17.3751 17.4632C18.152 17.4997 18.8846 17.8352 19.4198 18.3995C19.9549 18.9638 20.2511 19.7132 20.2463 20.4909V23.1144C20.2482 23.3983 20.1374 23.6713 19.9381 23.8734C19.7389 24.0756 19.4675 24.1904 19.1837 24.1926ZM5.83159 22.6926H18.7457V20.4909C18.7514 20.0917 18.5986 19.7065 18.3207 19.4198C18.0427 19.1331 17.6625 18.9683 17.2632 18.9617H15.8408V18.2117C15.8804 16.6821 16.2053 15.1733 16.7988 13.763C17.3568 12.4515 17.6625 11.0465 17.7 9.62177C17.709 8.27912 17.3554 6.95895 16.6765 5.80055C15.9976 4.64215 15.0186 3.6885 13.8428 3.04022C13.3125 2.86742 12.7178 2.61692 12.1421 2.37227C11.6921 2.18192 11.0859 1.92557 10.6538 1.78727C10.7601 2.09407 10.8015 2.41962 10.7753 2.74325C10.7491 3.06689 10.6559 3.38154 10.5015 3.66722C10.3386 3.86901 10.1333 4.03251 9.90016 4.14618C9.66703 4.25984 9.41177 4.32088 9.15244 4.32497C9.01324 4.33817 9.00154 4.33997 8.81989 4.72187C8.65064 5.12451 8.40374 5.48986 8.09329 5.79707C7.87069 6.00512 7.50004 6.29522 7.08544 6.61892C6.42765 7.09079 5.81693 7.62502 5.26174 8.21417C5.29834 8.56277 5.48884 9.74627 6.39409 9.74627C6.64112 9.74065 6.88427 9.68355 7.10799 9.57864C7.33171 9.47373 7.53109 9.3233 7.69339 9.13697C7.84408 8.95717 8.03333 8.81363 8.2471 8.717C8.46087 8.62038 8.69366 8.57315 8.92819 8.57882C9.20203 8.62321 9.46991 8.6987 9.72664 8.80382C10.1589 9.02025 10.6477 9.09704 11.1255 9.02357C11.3343 8.93566 11.568 8.92721 11.7825 8.9998C11.9971 9.0724 12.1777 9.22102 12.2901 9.41762C12.4409 9.70622 12.794 10.3844 10.0094 12.6681C9.20659 13.3376 8.73784 15.2931 8.72029 18.0455L8.72464 18.2105V18.9605H7.31554C6.91608 18.9668 6.53546 19.1314 6.25724 19.4181C5.97902 19.7049 5.82593 20.0903 5.83159 20.4897V22.6926Z" fill="#9CA3AF"/>
</g>
<defs>
<clipPath id="clip0_1_8393">
<rect width="24" height="24" fill="white" transform="translate(0 0.192627)"/>
</clipPath>
</defs>
</svg>
